<?xml version="1.0" encoding="utf-8"?>
<svg version="1.0" xmlns="http://www.w3.org/2000/svg" width="120px" height="120px" viewBox="23.048 5.026 132.836 113.85" preserveAspectRatio="xMidYMid meet">
  <g fill="#0ea5e9">
    <path d="M 76.2 113.6 C 69.5 111.2 63.7 109 63.4 108.7 C 63.1 108.4 64.2 107.4 65.9 106.5 C 68.9 105 69.5 105 76.1 107.2 L 83.2 109.5 L 85.6 106.5 C 88.8 102.4 90.6 93.8 89.1 89 C 87.3 82.8 89.6 84 48.1 69.4 C 39.7 66.5 32.2 63.6 31.4 62.9 C 26.7 59 24.5 45.9 27.1 37.9 C 29.3 31.4 28.5 31.9 59.5 18 C 62.3 16.8 67 14.6 70 13.3 C 73 11.9 77.7 9.9 80.3 8.9 L 85.2 7 L 96.8 10.9 C 103.3 13.1 113.7 16.8 120 19 C 126.3 21.3 134.1 24 137.3 25 C 146.7 28.1 146.9 28.4 140.8 30.9 C 137.9 32.2 133.1 34.3 130.2 35.6 C 127.3 36.9 124.7 38 124.5 38 C 124.3 38 121.7 39.1 118.8 40.4 C 104.8 46.7 93.4 51.3 92 51.2 C 90.7 51.2 62.1 42.1 43.1 35.7 L 36.8 33.5 L 33.894 35.947 C 30.094 40.747 30 48.4 32.6 54.9 C 34.3 59.2 34 59.1 65.5 70 C 72.1 72.3 80.6 75.3 84.3 76.6 C 91.1 79 91.1 79 95.3 77.1 C 97.6 76.1 104.9 72.9 111.5 70 C 118.1 67.1 125.3 64 127.5 63 C 139.5 57.7 148.5 60.9 151.8 65.7 C 155 70.2 154.9 79.6 151.6 86.7 C 149.3 91.6 148.6 92.2 140.8 95.9 C 120.7 105.3 110.9 110 103.1 113.9 C 98.3 116.2 93.4 118 91.6 117.9 C 89.9 117.9 83 115.9 76.2 113.6 Z" style=""/>
    <path d="M 49 110.6 C 49 107 45.874 104.061 41.374 104.061 C 37.374 104.061 36.6 103.4 39.8 102.4 C 40.7 102.1 43.2 101 45.3 99.9 C 47.5 98.9 56.5 95.1 58.8 94 C 63.1 91.9 67.4 92.8 67.4 92.8 C 67.4 92.8 69.899 93.628 72.423 94.708 C 78.624 97.361 81.2 98.6 77.6 100 C 76.2 100.5 69.5 103.7 62.6 107 C 55.8 110.3 50 113 49.6 113 C 49.3 113 49 111.9 49 110.6 Z M 52.163 96.779 L 52.164 96.779 C 52.164 96.779 52.164 96.779 52.163 96.779 Z" style=""/>
    <path d="M32.3 98.7 c-3.5 -1.2 -6.3 -2.4 -6.3 -2.8 0 -1.2 8.1 -6 9 -5.4 0.6 0.3 1 1.4 1 2.4 0 1.2 1.4 2.1 5 3 2.8 0.7 5 1.6 5 2.1 0 0.8 -5.6 3.1 -6.9 2.9 -0.3 -0.1 -3.4 -1.1 -6.8 -2.2z" style=""/>
  </g>
</svg>